<?xml version="1.0" standalone="no"?>
<!DOCTYPE svg PUBLIC "-//W3C//DTD SVG 20010904//EN"
 "http://www.w3.org/TR/2001/REC-SVG-20010904/DTD/svg10.dtd">
<svg version="1.0" xmlns="http://www.w3.org/2000/svg"
 width="2214.000000pt" height="1430.000000pt" viewBox="0 0 2214.000000 1430.000000"
 preserveAspectRatio="xMidYMid meet">

<g transform="translate(0.000000,1430.000000) scale(0.100000,-0.100000)"
fill="#000000" stroke="none">
<path d="M4731 14285 c-227 -50 -447 -177 -663 -384 -129 -123 -214 -223 -301
-354 -67 -99 -142 -240 -171 -318 l-18 -46 -66 -12 c-37 -7 -150 -33 -252 -58
-713 -175 -1547 -468 -2290 -803 -450 -203 -608 -295 -755 -444 -153 -155
-210 -281 -210 -466 1 -127 19 -200 80 -327 79 -165 175 -291 357 -469 160
-156 323 -288 493 -398 51 -33 67 -51 109 -124 110 -191 283 -385 424 -476 37
-24 121 -72 187 -107 154 -81 217 -123 286 -196 71 -73 100 -118 178 -268 189
-367 507 -655 1456 -1320 451 -316 545 -387 906 -682 1259 -1032 2216 -1747
2627 -1966 l101 -53 -70 -70 c-133 -131 -296 -361 -731 -1037 -134 -208 -263
-394 -335 -484 -17 -22 -18 -15 -18 220 -1 138 -6 281 -13 332 -32 224 -90
377 -179 475 -100 109 -207 144 -492 161 -252 14 -311 5 -311 -50 0 -56 158
-166 333 -231 32 -12 74 -36 93 -53 123 -108 162 -407 93 -725 -27 -127 -32
-134 -54 -91 -10 19 -42 70 -73 114 -257 372 -620 662 -976 780 -142 48 -216
58 -369 53 -115 -4 -145 -9 -232 -38 -178 -58 -279 -121 -315 -196 -19 -38
-20 -49 -10 -74 27 -65 145 -79 296 -34 119 35 185 30 291 -20 233 -111 486
-402 671 -771 52 -105 108 -252 100 -261 -3 -2 -39 5 -79 16 -124 34 -304 60
-516 72 -586 34 -1374 -81 -1457 -214 -19 -31 5 -70 59 -100 94 -51 238 -76
745 -128 511 -53 592 -70 789 -169 288 -145 525 -313 1364 -968 640 -501 1064
-816 1162 -866 213 -106 445 -94 709 39 583 293 1331 1258 1961 2529 148 299
231 484 306 687 l43 116 81 -76 c220 -208 583 -382 1113 -533 217 -61 522
-129 762 -169 202 -34 230 -42 230 -65 0 -43 173 -473 302 -748 124 -268 299
-575 422 -742 l44 -60 -512 0 c-581 0 -815 -13 -1286 -71 -1070 -131 -2110
-482 -2455 -829 -195 -195 -286 -453 -194 -551 18 -19 33 -24 71 -24 72 0 118
29 248 154 167 161 323 263 560 364 533 228 1288 350 2290 368 l325 7 -385
-193 c-688 -343 -1044 -546 -1189 -676 -87 -79 -86 -109 7 -152 45 -20 76 -26
159 -30 188 -8 380 41 578 148 61 33 151 80 200 104 272 132 799 281 1261 355
260 42 363 45 1216 32 1514 -22 2428 -10 3413 44 1151 64 1737 211 2295 579
567 374 1083 987 1885 2241 402 629 600 1064 681 1505 27 145 25 444 -3 567
-122 522 -555 857 -1375 1063 -89 22 -166 44 -169 48 -3 4 -37 77 -74 162
-100 229 -338 708 -461 925 -283 501 -585 949 -913 1355 -247 305 -612 692
-891 945 -933 844 -2027 1449 -3265 1805 -1256 361 -4501 880 -8339 1334 -158
19 -291 38 -295 43 -4 4 -20 40 -36 78 -113 278 -288 551 -432 671 -183 155
-356 219 -721 268 -213 29 -315 31 -411 11z"/>
</g>
</svg>
