<?xml version="1.0" encoding="UTF-8"?>
<svg id="Calque_1" data-name="Calque 1" xmlns="http://www.w3.org/2000/svg" viewBox="0 0 722.57 717.96">
  <defs>
    <style>
      .cls-1 {
        fill: #0087cc;
      }

      .cls-1, .cls-2 {
        stroke-width: 0px;
      }

      .cls-2 {
        fill: #fff;
      }
    </style>
  </defs>
  <circle class="cls-2" cx="358.29" cy="355.03" r="238.47"/>
  <g>
    <path class="cls-1" d="M377.29,299.44s-25.63,3.8-37.05-4.61c-5.01-12.42,7.01-49.46,40.05-49.46,12.6,0,28.01,9.79,32.43,16.2.02-.91.04-1.84.04-2.79,0,0,2.4-19.22-14.82-66.08-17.22-46.86-28.84-106.53-30.84-119.75-2-13.22-2-46.06-8.81-46.06s-6.81,32.84-8.81,46.06c-2,13.22-13.62,72.89-30.84,119.75-17.22,46.86-14.82,66.08-14.82,66.08,0,62.48,54.47,55.27,54.47,55.27,0,0,.35.05.98.1,7.32-4.15,13.64-8.99,18.02-14.72Z"/>
    <path class="cls-1" d="M640.22,346.07c-13.22-2-72.89-13.62-119.75-30.84-46.86-17.22-66.08-14.82-66.08-14.82-20.7,0-33.75,5.98-41.94,13.98,3.73,13.33,4.02,32.58-12.77,55.3,2.69,16.13,13.65,39.66,54.71,39.66,0,0,19.22,2.4,66.08-14.82,46.86-17.22,106.53-28.84,119.75-30.84,13.22-2,46.06-2,46.06-8.81s-32.84-6.81-46.06-8.81Z"/>
    <path class="cls-1" d="M314.54,330.88c-5.21-14.6-18.63-30.46-52.34-30.46,0,0-19.22-2.4-66.08,14.82-46.86,17.22-106.53,28.84-119.75,30.84-13.22,2-46.06,2-46.06,8.81s32.84,6.81,46.06,8.81c13.22,2,72.89,13.62,119.75,30.84,46.86,17.22,66.08,14.82,66.08,14.82,2.97,0,5.78-.12,8.45-.36.03-.02,38.05-17.67,43.9-78.12Z"/>
    <path class="cls-1" d="M498.26,209.56c-2.41-1.14-5.98-1.44-10.09,2.67,0,0-2.63,2.05-6.24,9.86-3.61,7.81-9.47,16.49-10.83,18.34-1.37,1.85-5.37,5.85-4.54,6.68s4.83-3.17,6.68-4.54c1.85-1.37,10.54-7.22,18.34-10.83,7.81-3.61,9.86-6.24,9.86-6.24.36-.36.69-.72.99-1.07,0,0,2.48-6.79-4.17-14.86Z"/>
    <path class="cls-1" d="M218.51,501c2.41,1.14,5.98,1.44,10.09-2.67,0,0,2.63-2.05,6.24-9.86,3.61-7.81,9.47-16.49,10.83-18.34,1.37-1.85,5.37-5.85,4.54-6.68s-4.83,3.17-6.68,4.54c-1.85,1.37-10.54,7.22-18.34,10.83-7.81,3.61-9.86,6.24-9.86,6.24-.36.36-.69.72-.99,1.07,0,0-2.48,6.79,4.17,14.86Z"/>
    <path class="cls-1" d="M504.11,495.15c1.14-2.41,1.44-5.98-2.67-10.09,0,0-2.05-2.63-9.86-6.24-7.81-3.61-16.49-9.47-18.34-10.83-1.85-1.37-5.85-5.37-6.68-4.54-.83.83,3.17,4.83,4.54,6.68,1.37,1.85,7.22,10.54,10.83,18.34,3.61,7.81,6.24,9.86,6.24,9.86.36.36.72.69,1.07.99,0,0,6.79,2.48,14.86-4.17Z"/>
    <path class="cls-1" d="M212.66,215.41c-1.14,2.41-1.44,5.98,2.67,10.09,0,0,2.05,2.63,9.86,6.24,7.81,3.61,16.49,9.47,18.34,10.83,1.85,1.37,5.85,5.37,6.68,4.54s-3.17-4.83-4.54-6.68c-1.37-1.85-7.22-10.54-10.83-18.34-3.61-7.81-6.24-9.86-6.24-9.86-.36-.36-.72-.69-1.07-.99,0,0-6.79-2.48-14.86,4.17Z"/>
    <path class="cls-1" d="M412.73,261.59s0-.01-.01-.02c0,0,0,.02,0,.03,0,0,0,0,.01,0Z"/>
    <path class="cls-1" d="M437.04,271.2l-24.31-9.61-.02.06s0-.03,0-.05c-8.52,5.05-14.16,16.44-8.66,32.47,2.18-3.41,4.06-7.38,5.51-12.01l27.48-10.86Z"/>
    <path class="cls-1" d="M412.76,450.98c0-40.96-23.41-51.97-39.54-54.69-16.21,12.9-38.36,26.48-68.31,40.41,0,0-20.46,10.23-42.69,11.73,12.62,6.09,31.86,5.09,41.5,4.08-.17,5.35.45,25.21,14.91,64.56,17.22,46.86,28.84,106.53,30.84,119.75,2,13.22,2,46.06,8.81,46.06s6.81-32.84,8.81-46.06c2-13.22,13.62-72.89,30.84-119.75,17.22-46.86,14.82-66.08,14.82-66.08Z"/>
    <circle class="cls-1" cx="385.69" cy="267.52" r="5.92"/>
    <path class="cls-1" d="M320.79,404.17s50.27-6.04,64.9-50.92c-12.09,12.74-31.5,32.79-64.9,50.92Z"/>
    <path class="cls-1" d="M308.64,166.4l3.75-13.01c-76.74,17.61-137.17,78.41-154.27,155.34l12.93-3.7c17.38-67.45,70.34-120.75,137.59-138.63Z"/>
    <path class="cls-1" d="M545.57,304.44l13.01,3.75c-17.61-76.74-78.41-137.17-155.34-154.27l3.7,12.93c67.45,17.38,120.75,70.34,138.63,137.59Z"/>
    <path class="cls-1" d="M408.07,544.75l-3.75,13.01c76.74-17.61,137.17-78.41,154.27-155.34l-12.93,3.7c-17.38,67.45-70.34,120.75-137.59,138.63Z"/>
    <path class="cls-1" d="M171.14,406.71l-13.01-3.75c17.61,76.74,78.41,137.17,155.34,154.27l-3.7-12.93c-67.45-17.38-120.75-70.34-138.63-137.59Z"/>
    <path class="cls-2" d="M340.2,228.81v-53.02h9.9l16.01,29.92v-29.92h10.46v53.02h-9.62l-16.29-30.27v30.27h-10.46Z"/>
    <path class="cls-2" d="M342.9,475.21c4.07,3.09,9.2,5.41,14.12,5.41,3.44,0,6.25-1.76,6.25-5.9,0-10.53-21-5.27-21-23.81,0-10.46,6.88-15.31,16.08-15.31,5.2,0,9.62.98,14.12,4.07l-.42,10.04c-3.65-2.95-7.66-4.64-12.22-4.64-3.3,0-6.39,1.33-6.39,5.48,0,10.39,21.07,4.35,21.07,23.6,0,10.82-7.09,16.22-16.71,16.22-5.41,0-10.75-1.69-15.31-4.92l.42-10.25Z"/>
    <path class="cls-1" d="M443.87,384.73v-59.42h33.37v10.78h-21.17v13.85h19.75v10h-19.75v14.01h21.56v10.78h-33.76Z"/>
    <path class="cls-1" d="M239.14,354.29c0-17.79,9.05-30.38,22.98-30.38s22.98,12.59,22.98,30.38-8.97,31.01-22.98,31.01-22.98-12.83-22.98-31.01ZM272.75,354.37c0-11.57-3.94-19.12-10.62-19.12s-10.62,7.56-10.62,19.12,3.94,19.52,10.62,19.52,10.62-7.71,10.62-19.52Z"/>
  </g>
</svg>